<svg xmlns="http://www.w3.org/2000/svg" xmlns:xlink="http://www.w3.org/1999/xlink" id="terminal" baseProfile="full" viewBox="0 0 320 257" width="320" version="1.1">
    <defs>
        <termtosvg:template_settings xmlns:termtosvg="https://github.com/nbedos/termtosvg">
            <termtosvg:screen_geometry columns="40" rows="15"/>
            <termtosvg:animation type="css"/>
        </termtosvg:template_settings>
        <style type="text/css" id="generated-style"><![CDATA[#screen {
                font-family: 'DejaVu Sans Mono', monospace;
                font-style: normal;
                font-size: 14px;
            }

        text {
            dominant-baseline: text-before-edge;
            white-space: pre;
        }
    
            :root {
                --animation-duration: 7395ms;
            }

            @keyframes roll {
                0.000%{transform:translateY(0px)}
0.014%{transform:translateY(-272px)}
0.041%{transform:translateY(-544px)}
6.802%{transform:translateY(-816px)}
11.007%{transform:translateY(-1088px)}
17.769%{transform:translateY(-1360px)}
24.530%{transform:translateY(-1632px)}
31.291%{transform:translateY(-1904px)}
37.863%{transform:translateY(-2176px)}
41.393%{transform:translateY(-2448px)}
42.759%{transform:translateY(-2720px)}
43.164%{transform:translateY(-2992px)}
43.381%{transform:translateY(-3264px)}
43.489%{transform:translateY(-3536px)}
43.556%{transform:translateY(-3808px)}
43.584%{transform:translateY(-4080px)}
43.624%{transform:translateY(-4352px)}
44.219%{transform:translateY(-4624px)}
44.246%{transform:translateY(-4896px)}
44.273%{transform:translateY(-5168px)}
51.034%{transform:translateY(-5440px)}
54.375%{transform:translateY(-5712px)}
61.136%{transform:translateY(-5984px)}
67.897%{transform:translateY(-6256px)}
73.496%{transform:translateY(-6528px)}
76.105%{transform:translateY(-6800px)}
77.647%{transform:translateY(-7072px)}
78.215%{transform:translateY(-7344px)}
78.553%{transform:translateY(-7616px)}
78.729%{transform:translateY(-7888px)}
78.837%{transform:translateY(-8160px)}
78.905%{transform:translateY(-8432px)}
78.972%{transform:translateY(-8704px)}
78.999%{transform:translateY(-8976px)}
79.026%{transform:translateY(-9248px)}
79.648%{transform:translateY(-9520px)}
79.689%{transform:translateY(-9792px)}
79.716%{transform:translateY(-10064px)}
86.477%{transform:translateY(-10336px)}
100.000%{transform:translateY(-10336px)}
            }

            #screen_view {
                animation-duration: 7395ms;
                animation-iteration-count:infinite;
                animation-name:roll;
                animation-timing-function: steps(1,end);
                animation-fill-mode: forwards;
            }
        ]]></style>
        <style type="text/css" id="user-style">
            /* The colors defined below are the default 16 colors used for rendering text of the terminal. Adjust
               them as needed.
               PowerShell colors based on https://en.wikipedia.org/wiki/ANSI_escape_code#Colors */
            .foreground {fill: #cccccc;}
            .background {fill: #0c0c0c;}
            .color0 {fill: #0c0c0c;}
            .color1 {fill: #c50f1f;}
            .color2 {fill: #13a10e;}
            .color3 {fill: #c19c00;}
            .color4 {fill: #0037da;}
            .color5 {fill: #881798;}
            .color6 {fill: #3a96dd;}
            .color7 {fill: #cccccc;}
            .color8 {fill: #767676;}
            .color9 {fill: #e74856;}
            .color10 {fill: #16c60c;}
            .color11 {fill: #f9f1a5;}
            .color12 {fill: #3b78ff;}
            .color13 {fill: #b4009e;}
            .color14 {fill: #61d6d6;}
            .color15 {fill: #f2f2f2;}
        </style>
    </defs>
    <svg id="screen" width="320" height="255" viewBox="0 0 320 255" preserveAspectRatio="xMidYMin slice">
    <rect class="background" height="100%" width="100%" x="0" y="0"/><defs><g id="g1"><text x="0" textLength="8" class="background"> </text><text x="8" textLength="312" class="foreground">                                       </text></g><g id="g2"><text x="0" textLength="304" class="foreground">julianknodt@julianknodtsAir hangman % </text><text x="304" textLength="8" class="background"> </text><text x="312" textLength="8" class="foreground"> </text></g><g id="g3"><text x="0" textLength="320" class="foreground">julianknodt@julianknodtsAir hangman % py</text></g><g id="g4"><text x="0" textLength="120" class="foreground">thon3 runner.py</text><text x="120" textLength="8" class="background"> </text><text x="128" textLength="192" class="foreground">                        </text></g><g id="g5"><text x="0" textLength="320" class="foreground">thon3 runner.py --solve --difficulty 10 </text></g><g id="g6"><text x="0" textLength="120" class="foreground">--max-misses 15</text><text x="120" textLength="8" class="background"> </text><text x="128" textLength="192" class="foreground">                        </text></g><g id="g7"><text x="0" textLength="320" class="foreground">--max-misses 15                         </text></g><g id="g8"><text x="0" textLength="8" class="background"> </text></g><g id="g9"><text x="0" textLength="120" class="foreground">Word is nechama</text></g><g id="g10"><text x="0" textLength="88" class="foreground">Guessing: e</text></g><g id="g11"><text x="0" textLength="88" class="foreground">Guessing: a</text></g><g id="g12"><text x="0" textLength="88" class="foreground">Guessing: i</text></g><g id="g13"><text x="0" textLength="88" class="foreground">Guessing: o</text></g><g id="g14"><text x="0" textLength="88" class="foreground">Guessing: u</text></g><g id="g15"><text x="0" textLength="88" class="foreground">Guessing: r</text></g><g id="g16"><text x="0" textLength="88" class="foreground">Guessing: l</text></g><g id="g17"><text x="0" textLength="88" class="foreground">Guessing: s</text></g><g id="g18"><text x="0" textLength="88" class="foreground">Guessing: n</text></g><g id="g19"><text x="0" textLength="88" class="foreground">Guessing: w</text></g><g id="g20"><text x="0" textLength="88" class="foreground">Guessing: t</text></g><g id="g21"><text x="0" textLength="88" class="foreground">Guessing: c</text></g><g id="g22"><text x="0" textLength="88" class="foreground">Guessing: h</text></g><g id="g23"><text x="0" textLength="88" class="foreground">Guessing: m</text></g><g id="g24"><text x="0" textLength="48" class="foreground">Found!</text></g><g id="g25"><text x="0" textLength="112" class="foreground">Word is aolcom</text></g><g id="g26"><text x="0" textLength="320" class="foreground">julianknodt@julianknodtsAir hangman %   </text></g></defs><g id="screen_view"><g><rect x="0" y="0" width="8" height="17" class="foreground"/><use xlink:href="#g1" y="0"/></g><g><rect x="0" y="272" width="8" height="17" class="foreground"/><use xlink:href="#g1" y="272"/></g><g><rect x="304" y="544" width="8" height="17" class="foreground"/><use xlink:href="#g2" y="544"/></g><g><use xlink:href="#g3" y="816"/><rect x="120" y="833" width="8" height="17" class="foreground"/><use xlink:href="#g4" y="833"/></g><g><use xlink:href="#g3" y="1088"/><use xlink:href="#g5" y="1105"/><rect x="120" y="1122" width="8" height="17" class="foreground"/><use xlink:href="#g6" y="1122"/></g><g><use xlink:href="#g3" y="1360"/><use xlink:href="#g5" y="1377"/><use xlink:href="#g7" y="1394"/><rect x="0" y="1411" width="8" height="17" class="foreground"/><use xlink:href="#g8" y="1411"/></g><g><use xlink:href="#g3" y="1632"/><use xlink:href="#g5" y="1649"/><use xlink:href="#g7" y="1666"/><use xlink:href="#g9" y="1683"/><rect x="0" y="1700" width="8" height="17" class="foreground"/><use xlink:href="#g8" y="1700"/></g><g><use xlink:href="#g3" y="1904"/><use xlink:href="#g5" y="1921"/><use xlink:href="#g7" y="1938"/><use xlink:href="#g9" y="1955"/><use xlink:href="#g10" y="1972"/><rect x="0" y="1989" width="8" height="17" class="foreground"/><use xlink:href="#g8" y="1989"/></g><g><use xlink:href="#g3" y="2176"/><use xlink:href="#g5" y="2193"/><use xlink:href="#g7" y="2210"/><use xlink:href="#g9" y="2227"/><use xlink:href="#g10" y="2244"/><use xlink:href="#g11" y="2261"/><rect x="0" y="2278" width="8" height="17" class="foreground"/><use xlink:href="#g8" y="2278"/></g><g><use xlink:href="#g3" y="2448"/><use xlink:href="#g5" y="2465"/><use xlink:href="#g7" y="2482"/><use xlink:href="#g9" y="2499"/><use xlink:href="#g10" y="2516"/><use xlink:href="#g11" y="2533"/><use xlink:href="#g12" y="2550"/><rect x="0" y="2567" width="8" height="17" class="foreground"/><use xlink:href="#g8" y="2567"/></g><g><use xlink:href="#g3" y="2720"/><use xlink:href="#g5" y="2737"/><use xlink:href="#g7" y="2754"/><use xlink:href="#g9" y="2771"/><use xlink:href="#g10" y="2788"/><use xlink:href="#g11" y="2805"/><use xlink:href="#g12" y="2822"/><use xlink:href="#g13" y="2839"/><rect x="0" y="2856" width="8" height="17" class="foreground"/><use xlink:href="#g8" y="2856"/></g><g><use xlink:href="#g3" y="2992"/><use xlink:href="#g5" y="3009"/><use xlink:href="#g7" y="3026"/><use xlink:href="#g9" y="3043"/><use xlink:href="#g10" y="3060"/><use xlink:href="#g11" y="3077"/><use xlink:href="#g12" y="3094"/><use xlink:href="#g13" y="3111"/><use xlink:href="#g14" y="3128"/><rect x="0" y="3145" width="8" height="17" class="foreground"/><use xlink:href="#g8" y="3145"/></g><g><use xlink:href="#g3" y="3264"/><use xlink:href="#g5" y="3281"/><use xlink:href="#g7" y="3298"/><use xlink:href="#g9" y="3315"/><use xlink:href="#g10" y="3332"/><use xlink:href="#g11" y="3349"/><use xlink:href="#g12" y="3366"/><use xlink:href="#g13" y="3383"/><use xlink:href="#g14" y="3400"/><use xlink:href="#g15" y="3417"/><rect x="0" y="3434" width="8" height="17" class="foreground"/><use xlink:href="#g8" y="3434"/></g><g><use xlink:href="#g3" y="3536"/><use xlink:href="#g5" y="3553"/><use xlink:href="#g7" y="3570"/><use xlink:href="#g9" y="3587"/><use xlink:href="#g10" y="3604"/><use xlink:href="#g11" y="3621"/><use xlink:href="#g12" y="3638"/><use xlink:href="#g13" y="3655"/><use xlink:href="#g14" y="3672"/><use xlink:href="#g15" y="3689"/><use xlink:href="#g16" y="3706"/><rect x="0" y="3723" width="8" height="17" class="foreground"/><use xlink:href="#g8" y="3723"/></g><g><use xlink:href="#g3" y="3808"/><use xlink:href="#g5" y="3825"/><use xlink:href="#g7" y="3842"/><use xlink:href="#g9" y="3859"/><use xlink:href="#g10" y="3876"/><use xlink:href="#g11" y="3893"/><use xlink:href="#g12" y="3910"/><use xlink:href="#g13" y="3927"/><use xlink:href="#g14" y="3944"/><use xlink:href="#g15" y="3961"/><use xlink:href="#g16" y="3978"/><use xlink:href="#g17" y="3995"/><rect x="0" y="4012" width="8" height="17" class="foreground"/><use xlink:href="#g8" y="4012"/></g><g><use xlink:href="#g3" y="4080"/><use xlink:href="#g5" y="4097"/><use xlink:href="#g7" y="4114"/><use xlink:href="#g9" y="4131"/><use xlink:href="#g10" y="4148"/><use xlink:href="#g11" y="4165"/><use xlink:href="#g12" y="4182"/><use xlink:href="#g13" y="4199"/><use xlink:href="#g14" y="4216"/><use xlink:href="#g15" y="4233"/><use xlink:href="#g16" y="4250"/><use xlink:href="#g17" y="4267"/><use xlink:href="#g18" y="4284"/><rect x="0" y="4301" width="8" height="17" class="foreground"/><use xlink:href="#g8" y="4301"/></g><g><use xlink:href="#g11" y="4352"/><use xlink:href="#g12" y="4369"/><use xlink:href="#g13" y="4386"/><use xlink:href="#g14" y="4403"/><use xlink:href="#g15" y="4420"/><use xlink:href="#g16" y="4437"/><use xlink:href="#g17" y="4454"/><use xlink:href="#g18" y="4471"/><use xlink:href="#g19" y="4488"/><use xlink:href="#g20" y="4505"/><use xlink:href="#g21" y="4522"/><use xlink:href="#g22" y="4539"/><use xlink:href="#g23" y="4556"/><use xlink:href="#g24" y="4573"/><rect x="0" y="4590" width="8" height="17" class="foreground"/><use xlink:href="#g8" y="4590"/></g><g><use xlink:href="#g11" y="4624"/><use xlink:href="#g12" y="4641"/><use xlink:href="#g13" y="4658"/><use xlink:href="#g14" y="4675"/><use xlink:href="#g15" y="4692"/><use xlink:href="#g16" y="4709"/><use xlink:href="#g17" y="4726"/><use xlink:href="#g18" y="4743"/><use xlink:href="#g19" y="4760"/><use xlink:href="#g20" y="4777"/><use xlink:href="#g21" y="4794"/><use xlink:href="#g22" y="4811"/><use xlink:href="#g23" y="4828"/><use xlink:href="#g24" y="4845"/><rect x="0" y="4862" width="8" height="17" class="foreground"/><use xlink:href="#g1" y="4862"/></g><g><use xlink:href="#g11" y="4896"/><use xlink:href="#g12" y="4913"/><use xlink:href="#g13" y="4930"/><use xlink:href="#g14" y="4947"/><use xlink:href="#g15" y="4964"/><use xlink:href="#g16" y="4981"/><use xlink:href="#g17" y="4998"/><use xlink:href="#g18" y="5015"/><use xlink:href="#g19" y="5032"/><use xlink:href="#g20" y="5049"/><use xlink:href="#g21" y="5066"/><use xlink:href="#g22" y="5083"/><use xlink:href="#g23" y="5100"/><use xlink:href="#g24" y="5117"/><rect x="0" y="5134" width="8" height="17" class="foreground"/><use xlink:href="#g1" y="5134"/></g><g><use xlink:href="#g11" y="5168"/><use xlink:href="#g12" y="5185"/><use xlink:href="#g13" y="5202"/><use xlink:href="#g14" y="5219"/><use xlink:href="#g15" y="5236"/><use xlink:href="#g16" y="5253"/><use xlink:href="#g17" y="5270"/><use xlink:href="#g18" y="5287"/><use xlink:href="#g19" y="5304"/><use xlink:href="#g20" y="5321"/><use xlink:href="#g21" y="5338"/><use xlink:href="#g22" y="5355"/><use xlink:href="#g23" y="5372"/><use xlink:href="#g24" y="5389"/><rect x="304" y="5406" width="8" height="17" class="foreground"/><use xlink:href="#g2" y="5406"/></g><g><use xlink:href="#g13" y="5440"/><use xlink:href="#g14" y="5457"/><use xlink:href="#g15" y="5474"/><use xlink:href="#g16" y="5491"/><use xlink:href="#g17" y="5508"/><use xlink:href="#g18" y="5525"/><use xlink:href="#g19" y="5542"/><use xlink:href="#g20" y="5559"/><use xlink:href="#g21" y="5576"/><use xlink:href="#g22" y="5593"/><use xlink:href="#g23" y="5610"/><use xlink:href="#g24" y="5627"/><use xlink:href="#g3" y="5644"/><use xlink:href="#g5" y="5661"/><rect x="120" y="5678" width="8" height="17" class="foreground"/><use xlink:href="#g6" y="5678"/></g><g><use xlink:href="#g14" y="5712"/><use xlink:href="#g15" y="5729"/><use xlink:href="#g16" y="5746"/><use xlink:href="#g17" y="5763"/><use xlink:href="#g18" y="5780"/><use xlink:href="#g19" y="5797"/><use xlink:href="#g20" y="5814"/><use xlink:href="#g21" y="5831"/><use xlink:href="#g22" y="5848"/><use xlink:href="#g23" y="5865"/><use xlink:href="#g24" y="5882"/><use xlink:href="#g3" y="5899"/><use xlink:href="#g5" y="5916"/><use xlink:href="#g7" y="5933"/><rect x="0" y="5950" width="8" height="17" class="foreground"/><use xlink:href="#g8" y="5950"/></g><g><use xlink:href="#g15" y="5984"/><use xlink:href="#g16" y="6001"/><use xlink:href="#g17" y="6018"/><use xlink:href="#g18" y="6035"/><use xlink:href="#g19" y="6052"/><use xlink:href="#g20" y="6069"/><use xlink:href="#g21" y="6086"/><use xlink:href="#g22" y="6103"/><use xlink:href="#g23" y="6120"/><use xlink:href="#g24" y="6137"/><use xlink:href="#g3" y="6154"/><use xlink:href="#g5" y="6171"/><use xlink:href="#g7" y="6188"/><use xlink:href="#g25" y="6205"/><rect x="0" y="6222" width="8" height="17" class="foreground"/><use xlink:href="#g8" y="6222"/></g><g><use xlink:href="#g16" y="6256"/><use xlink:href="#g17" y="6273"/><use xlink:href="#g18" y="6290"/><use xlink:href="#g19" y="6307"/><use xlink:href="#g20" y="6324"/><use xlink:href="#g21" y="6341"/><use xlink:href="#g22" y="6358"/><use xlink:href="#g23" y="6375"/><use xlink:href="#g24" y="6392"/><use xlink:href="#g3" y="6409"/><use xlink:href="#g5" y="6426"/><use xlink:href="#g7" y="6443"/><use xlink:href="#g25" y="6460"/><use xlink:href="#g10" y="6477"/><rect x="0" y="6494" width="8" height="17" class="foreground"/><use xlink:href="#g8" y="6494"/></g><g><use xlink:href="#g17" y="6528"/><use xlink:href="#g18" y="6545"/><use xlink:href="#g19" y="6562"/><use xlink:href="#g20" y="6579"/><use xlink:href="#g21" y="6596"/><use xlink:href="#g22" y="6613"/><use xlink:href="#g23" y="6630"/><use xlink:href="#g24" y="6647"/><use xlink:href="#g3" y="6664"/><use xlink:href="#g5" y="6681"/><use xlink:href="#g7" y="6698"/><use xlink:href="#g25" y="6715"/><use xlink:href="#g10" y="6732"/><use xlink:href="#g11" y="6749"/><rect x="0" y="6766" width="8" height="17" class="foreground"/><use xlink:href="#g8" y="6766"/></g><g><use xlink:href="#g18" y="6800"/><use xlink:href="#g19" y="6817"/><use xlink:href="#g20" y="6834"/><use xlink:href="#g21" y="6851"/><use xlink:href="#g22" y="6868"/><use xlink:href="#g23" y="6885"/><use xlink:href="#g24" y="6902"/><use xlink:href="#g3" y="6919"/><use xlink:href="#g5" y="6936"/><use xlink:href="#g7" y="6953"/><use xlink:href="#g25" y="6970"/><use xlink:href="#g10" y="6987"/><use xlink:href="#g11" y="7004"/><use xlink:href="#g13" y="7021"/><rect x="0" y="7038" width="8" height="17" class="foreground"/><use xlink:href="#g8" y="7038"/></g><g><use xlink:href="#g19" y="7072"/><use xlink:href="#g20" y="7089"/><use xlink:href="#g21" y="7106"/><use xlink:href="#g22" y="7123"/><use xlink:href="#g23" y="7140"/><use xlink:href="#g24" y="7157"/><use xlink:href="#g3" y="7174"/><use xlink:href="#g5" y="7191"/><use xlink:href="#g7" y="7208"/><use xlink:href="#g25" y="7225"/><use xlink:href="#g10" y="7242"/><use xlink:href="#g11" y="7259"/><use xlink:href="#g13" y="7276"/><use xlink:href="#g12" y="7293"/><rect x="0" y="7310" width="8" height="17" class="foreground"/><use xlink:href="#g8" y="7310"/></g><g><use xlink:href="#g20" y="7344"/><use xlink:href="#g21" y="7361"/><use xlink:href="#g22" y="7378"/><use xlink:href="#g23" y="7395"/><use xlink:href="#g24" y="7412"/><use xlink:href="#g3" y="7429"/><use xlink:href="#g5" y="7446"/><use xlink:href="#g7" y="7463"/><use xlink:href="#g25" y="7480"/><use xlink:href="#g10" y="7497"/><use xlink:href="#g11" y="7514"/><use xlink:href="#g13" y="7531"/><use xlink:href="#g12" y="7548"/><use xlink:href="#g14" y="7565"/><rect x="0" y="7582" width="8" height="17" class="foreground"/><use xlink:href="#g8" y="7582"/></g><g><use xlink:href="#g21" y="7616"/><use xlink:href="#g22" y="7633"/><use xlink:href="#g23" y="7650"/><use xlink:href="#g24" y="7667"/><use xlink:href="#g3" y="7684"/><use xlink:href="#g5" y="7701"/><use xlink:href="#g7" y="7718"/><use xlink:href="#g25" y="7735"/><use xlink:href="#g10" y="7752"/><use xlink:href="#g11" y="7769"/><use xlink:href="#g13" y="7786"/><use xlink:href="#g12" y="7803"/><use xlink:href="#g14" y="7820"/><use xlink:href="#g17" y="7837"/><rect x="0" y="7854" width="8" height="17" class="foreground"/><use xlink:href="#g8" y="7854"/></g><g><use xlink:href="#g22" y="7888"/><use xlink:href="#g23" y="7905"/><use xlink:href="#g24" y="7922"/><use xlink:href="#g3" y="7939"/><use xlink:href="#g5" y="7956"/><use xlink:href="#g7" y="7973"/><use xlink:href="#g25" y="7990"/><use xlink:href="#g10" y="8007"/><use xlink:href="#g11" y="8024"/><use xlink:href="#g13" y="8041"/><use xlink:href="#g12" y="8058"/><use xlink:href="#g14" y="8075"/><use xlink:href="#g17" y="8092"/><use xlink:href="#g18" y="8109"/><rect x="0" y="8126" width="8" height="17" class="foreground"/><use xlink:href="#g8" y="8126"/></g><g><use xlink:href="#g23" y="8160"/><use xlink:href="#g24" y="8177"/><use xlink:href="#g3" y="8194"/><use xlink:href="#g5" y="8211"/><use xlink:href="#g7" y="8228"/><use xlink:href="#g25" y="8245"/><use xlink:href="#g10" y="8262"/><use xlink:href="#g11" y="8279"/><use xlink:href="#g13" y="8296"/><use xlink:href="#g12" y="8313"/><use xlink:href="#g14" y="8330"/><use xlink:href="#g17" y="8347"/><use xlink:href="#g18" y="8364"/><use xlink:href="#g16" y="8381"/><rect x="0" y="8398" width="8" height="17" class="foreground"/><use xlink:href="#g8" y="8398"/></g><g><use xlink:href="#g24" y="8432"/><use xlink:href="#g3" y="8449"/><use xlink:href="#g5" y="8466"/><use xlink:href="#g7" y="8483"/><use xlink:href="#g25" y="8500"/><use xlink:href="#g10" y="8517"/><use xlink:href="#g11" y="8534"/><use xlink:href="#g13" y="8551"/><use xlink:href="#g12" y="8568"/><use xlink:href="#g14" y="8585"/><use xlink:href="#g17" y="8602"/><use xlink:href="#g18" y="8619"/><use xlink:href="#g16" y="8636"/><use xlink:href="#g20" y="8653"/><rect x="0" y="8670" width="8" height="17" class="foreground"/><use xlink:href="#g8" y="8670"/></g><g><use xlink:href="#g3" y="8704"/><use xlink:href="#g5" y="8721"/><use xlink:href="#g7" y="8738"/><use xlink:href="#g25" y="8755"/><use xlink:href="#g10" y="8772"/><use xlink:href="#g11" y="8789"/><use xlink:href="#g13" y="8806"/><use xlink:href="#g12" y="8823"/><use xlink:href="#g14" y="8840"/><use xlink:href="#g17" y="8857"/><use xlink:href="#g18" y="8874"/><use xlink:href="#g16" y="8891"/><use xlink:href="#g20" y="8908"/><use xlink:href="#g21" y="8925"/><rect x="0" y="8942" width="8" height="17" class="foreground"/><use xlink:href="#g8" y="8942"/></g><g><use xlink:href="#g5" y="8976"/><use xlink:href="#g7" y="8993"/><use xlink:href="#g25" y="9010"/><use xlink:href="#g10" y="9027"/><use xlink:href="#g11" y="9044"/><use xlink:href="#g13" y="9061"/><use xlink:href="#g12" y="9078"/><use xlink:href="#g14" y="9095"/><use xlink:href="#g17" y="9112"/><use xlink:href="#g18" y="9129"/><use xlink:href="#g16" y="9146"/><use xlink:href="#g20" y="9163"/><use xlink:href="#g21" y="9180"/><use xlink:href="#g19" y="9197"/><rect x="0" y="9214" width="8" height="17" class="foreground"/><use xlink:href="#g8" y="9214"/></g><g><use xlink:href="#g25" y="9248"/><use xlink:href="#g10" y="9265"/><use xlink:href="#g11" y="9282"/><use xlink:href="#g13" y="9299"/><use xlink:href="#g12" y="9316"/><use xlink:href="#g14" y="9333"/><use xlink:href="#g17" y="9350"/><use xlink:href="#g18" y="9367"/><use xlink:href="#g16" y="9384"/><use xlink:href="#g20" y="9401"/><use xlink:href="#g21" y="9418"/><use xlink:href="#g19" y="9435"/><use xlink:href="#g23" y="9452"/><use xlink:href="#g24" y="9469"/><rect x="0" y="9486" width="8" height="17" class="foreground"/><use xlink:href="#g8" y="9486"/></g><g><use xlink:href="#g25" y="9520"/><use xlink:href="#g10" y="9537"/><use xlink:href="#g11" y="9554"/><use xlink:href="#g13" y="9571"/><use xlink:href="#g12" y="9588"/><use xlink:href="#g14" y="9605"/><use xlink:href="#g17" y="9622"/><use xlink:href="#g18" y="9639"/><use xlink:href="#g16" y="9656"/><use xlink:href="#g20" y="9673"/><use xlink:href="#g21" y="9690"/><use xlink:href="#g19" y="9707"/><use xlink:href="#g23" y="9724"/><use xlink:href="#g24" y="9741"/><rect x="0" y="9758" width="8" height="17" class="foreground"/><use xlink:href="#g1" y="9758"/></g><g><use xlink:href="#g25" y="9792"/><use xlink:href="#g10" y="9809"/><use xlink:href="#g11" y="9826"/><use xlink:href="#g13" y="9843"/><use xlink:href="#g12" y="9860"/><use xlink:href="#g14" y="9877"/><use xlink:href="#g17" y="9894"/><use xlink:href="#g18" y="9911"/><use xlink:href="#g16" y="9928"/><use xlink:href="#g20" y="9945"/><use xlink:href="#g21" y="9962"/><use xlink:href="#g19" y="9979"/><use xlink:href="#g23" y="9996"/><use xlink:href="#g24" y="10013"/><rect x="0" y="10030" width="8" height="17" class="foreground"/><use xlink:href="#g1" y="10030"/></g><g><use xlink:href="#g25" y="10064"/><use xlink:href="#g10" y="10081"/><use xlink:href="#g11" y="10098"/><use xlink:href="#g13" y="10115"/><use xlink:href="#g12" y="10132"/><use xlink:href="#g14" y="10149"/><use xlink:href="#g17" y="10166"/><use xlink:href="#g18" y="10183"/><use xlink:href="#g16" y="10200"/><use xlink:href="#g20" y="10217"/><use xlink:href="#g21" y="10234"/><use xlink:href="#g19" y="10251"/><use xlink:href="#g23" y="10268"/><use xlink:href="#g24" y="10285"/><rect x="304" y="10302" width="8" height="17" class="foreground"/><use xlink:href="#g2" y="10302"/></g><g><use xlink:href="#g10" y="10336"/><use xlink:href="#g11" y="10353"/><use xlink:href="#g13" y="10370"/><use xlink:href="#g12" y="10387"/><use xlink:href="#g14" y="10404"/><use xlink:href="#g17" y="10421"/><use xlink:href="#g18" y="10438"/><use xlink:href="#g16" y="10455"/><use xlink:href="#g20" y="10472"/><use xlink:href="#g21" y="10489"/><use xlink:href="#g19" y="10506"/><use xlink:href="#g23" y="10523"/><use xlink:href="#g24" y="10540"/><use xlink:href="#g26" y="10557"/><rect x="0" y="10574" width="8" height="17" class="foreground"/><use xlink:href="#g8" y="10574"/></g></g></svg>
</svg>